<svg id="Layer_x0020_1" xmlns="http://www.w3.org/2000/svg" width="3000" height="3000" viewBox="0 0 3000 3000">
  <circle id="Ellipse_1" data-name="Ellipse 1" cx="1500" cy="1500" r="1500" fill="#ffe173"></circle>
  <path id="Path_1" data-name="Path 1" d="M1716.34,1863.57a26.67,26.67,0,1,0,0-53.34H831.25V918.86H2168.73v749.56a26.67,26.67,0,1,0,53.34,0V906.19a40.714,40.714,0,0,0-40.67-40.66H818.57A40.732,40.732,0,0,0,777.9,906.2v916.72a40.443,40.443,0,0,0,9.64,26.14,24.94,24.94,0,0,0,2.27,2.58l.06-.06.01.02.05.05a40.576,40.576,0,0,0,28.64,11.93h897.76Z" fill="#022a32"></path>
  <path id="Path_2" data-name="Path 2" d="M1950.5,1141.48a26.67,26.67,0,0,0,0-53.34H1091.07a26.67,26.67,0,0,0,0,53.34Z" fill="#022a32"></path>
  <path id="Path_3" data-name="Path 3" d="M1722.04,1391.22a26.67,26.67,0,1,0,0-53.34H1091.07a26.67,26.67,0,1,0,0,53.34Z" fill="#022a32"></path>
  <path id="Path_4" data-name="Path 4" d="M1471.58,1640.95a26.67,26.67,0,0,0,0-53.34H1091.07a26.67,26.67,0,1,0,0,53.34Z" fill="#022a32"></path>
  <path id="Path_5" data-name="Path 5" d="M1690.23,1994.8a26.67,26.67,0,1,0,0-53.34H699.93V787.65h1600V1941.46H2174.97a26.67,26.67,0,0,0,0,53.34H2307.9c24.53,0,45.37-19.69,45.37-44.55V778.86c0-24.81-20.82-44.55-45.37-44.55H691.96c-24.55,0-45.37,19.67-45.37,44.55V1950.25c0,24.83,20.8,44.55,45.37,44.55Z" fill="#022a32"></path>
  <path id="Path_6" data-name="Path 6" d="M1932.6,1396.38a290.106,290.106,0,1,1-205.13,84.97A289.2,289.2,0,0,1,1932.6,1396.38Zm167.42,122.68a236.786,236.786,0,1,0,69.34,167.42A236.039,236.039,0,0,0,2100.02,1519.06Z" fill="#022a32"></path>
  <path id="Path_7" data-name="Path 7" d="M2033.48,1585.6a142.668,142.668,0,1,0,41.78,100.88A142.225,142.225,0,0,0,2033.48,1585.6Z" fill="#db5656"></path>
  <path id="Path_8" data-name="Path 8" d="M1932.6,1490.48a196.01,196.01,0,1,1-138.59,57.41A195.386,195.386,0,0,1,1932.6,1490.48Z" fill="#db5656"></path>
  <path id="Path_9" data-name="Path 9" d="M2142.55,1858.86a26.551,26.551,0,0,0-46.04,26.46l128.76,223.01-63.31-13.2.01-.07a26.675,26.675,0,0,0-31.04,18.61l-19.95,60.54-137.55-238.24a26.6,26.6,0,1,0-46.04,26.66l166.34,288.11a26.659,26.659,0,0,0,49.27-3.38l-.01-.02,31.41-95.29,96.35,20.09a26.667,26.667,0,0,0,30.3-39.01l-.1.06-158.39-274.35Z" fill="#022a32"></path>
  <path id="Path_10" data-name="Path 10" d="M1768.7,1885.43a26.6,26.6,0,1,0-46.04-26.66l-158.43,274.4h-.07a26.667,26.667,0,0,0,30.3,39.01l96.35-20.09,31.41,95.29-.01.01a26.662,26.662,0,0,0,49.55,2.79l166.07-287.65a26.551,26.551,0,0,0-46.04-26.46l-137.54,238.22-19.97-60.6a26.67,26.67,0,0,0-31.04-18.61l.01.07-63.24,13.19,128.69-222.89Z" fill="#022a32"></path>
</svg>